<svg xmlns="http://www.w3.org/2000/svg" viewBox="0 0 64 64" role="img" aria-label="fcl">
  <defs>
    <linearGradient id="g-fcl" x1="0" y1="0" x2="0" y2="1">
      <stop offset="0%" stop-color="#1A1520"/>
      <stop offset="100%" stop-color="#0A0C10"/>
    </linearGradient>
  </defs>
  <path fill="url(#g-fcl)" stroke="#C4A35A" stroke-width="1.5" d="M32 4 L54 12 V30 C54 46 42 56 32 60 C22 56 10 46 10 30 V12 Z"/>
  <path fill="none" stroke="#C4A35A" stroke-opacity="0.45" stroke-width="1" d="M32 10 L48 16 V30 C48 42 39 50 32 54 C25 50 16 42 16 30 V16 Z"/>
  <circle cx="32" cy="30" r="10" fill="none" stroke="#C4A35A" stroke-width="1.5"/><path d="M32 22 L34.5 28 H41 L35.8 32 L37.8 38 L32 34.5 L26.2 38 L28.2 32 L23 28 H29.5 Z" fill="#C4A35A"/>
</svg>
