<svg xmlns="http://www.w3.org/2000/svg" viewBox="0 0 64 64" role="img" aria-label="org">
  <defs>
    <linearGradient id="g-org" x1="0" y1="0" x2="0" y2="1">
      <stop offset="0%" stop-color="#3A1515"/>
      <stop offset="100%" stop-color="#1A0A0A"/>
    </linearGradient>
  </defs>
  <path fill="url(#g-org)" stroke="#C4A35A" stroke-width="1.5" d="M32 4 L54 12 V30 C54 46 42 56 32 60 C22 56 10 46 10 30 V12 Z"/>
  <path fill="none" stroke="#C4A35A" stroke-opacity="0.45" stroke-width="1" d="M32 10 L48 16 V30 C48 42 39 50 32 54 C25 50 16 42 16 30 V16 Z"/>
  <path d="M32 18 C28 24 22 28 22 34 C22 40 26 44 32 44 C38 44 42 40 42 34 C42 28 36 24 32 18 Z" fill="#C4A35A"/><path d="M26 34 H38" stroke="#1A0A0A" stroke-width="1.2"/>
</svg>
